<svg width="40" height="40" viewBox="0 0 40 40" fill="none" xmlns="http://www.w3.org/2000/svg">
<path fill-rule="evenodd" clip-rule="evenodd" d="M38.487 20.4541C38.487 19.036 38.3636 17.6724 38.1344 16.3633H19.8723V24.0995H30.3078C29.8583 26.5995 28.4922 28.7177 26.4386 30.1358V35.1539H32.7052C36.3717 31.6722 38.487 26.545 38.487 20.4541Z" fill="#4285F4"/>
<path fill-rule="evenodd" clip-rule="evenodd" d="M19.8723 39.999C25.1077 39.999 29.4969 38.2081 32.7051 35.1536L26.4386 30.1355C24.7022 31.3355 22.4812 32.0446 19.8723 32.0446C14.822 32.0446 10.5473 28.5265 9.02255 23.7993H2.54443V28.981C5.73502 35.5173 12.2925 39.999 19.8723 39.999Z" fill="#34A853"/>
<path fill-rule="evenodd" clip-rule="evenodd" d="M9.02247 23.7998C8.63467 22.5998 8.41432 21.318 8.41432 19.9999C8.41432 18.6817 8.63467 17.3999 9.02247 16.1999V11.0182H2.54436C1.2311 13.7182 0.481934 16.7727 0.481934 19.9999C0.481934 23.2271 1.2311 26.2816 2.54436 28.9816L9.02247 23.7998Z" fill="#FBBC05"/>
<path fill-rule="evenodd" clip-rule="evenodd" d="M19.8723 7.9544C22.7191 7.9544 25.2751 8.96347 27.2847 10.9453L32.8462 5.20899C29.4881 1.98176 25.0989 -2.67029e-05 19.8723 -2.67029e-05C12.2925 -2.67029e-05 5.73502 4.48172 2.54443 11.018L9.02255 16.1997C10.5473 11.4725 14.822 7.9544 19.8723 7.9544Z" fill="#EA4335"/>
</svg>
